<!-- Generated by IcoMoon.io -->
<svg version="1.1" xmlns="http://www.w3.org/2000/svg" width="30" height="32" viewBox="0 0 30 32">
<title>Group</title>
<path fill="#212121" stroke-linejoin="miter" stroke-linecap="butt" stroke-miterlimit="4" stroke-width="0.4571" stroke="#000" d="M29.696 22.258l0.001 0.001c0.119 0.119 0.119 0.312 0 0.431l-1.512 1.504c-0.054 0.054-0.129 0.088-0.212 0.089h-0c-0.084-0.001-0.159-0.036-0.214-0.091l-0-0-0.001-0.001-0.939-0.944-0.15 0.081c-2.004 1.103-4.391 1.753-6.93 1.755h-0.001c-1.064-0.003-2.1-0.117-3.099-0.333l0.097 0.018-0.276-0.058v3.252h6.629c1.346 0.002 2.436 1.093 2.438 2.438v1.066c0 0 0 0 0 0 0 0.168-0.136 0.305-0.304 0.305h-24.534c-0.168 0-0.305-0.137-0.305-0.305v0-1.067c0.002-1.346 1.093-2.436 2.438-2.438h6.629v-6.415c0.001-0.18 0.019-0.355 0.051-0.524l-0.003 0.018 0.033-0.178-0.165-0.073c-0.030-0.013-0.056-0.031-0.079-0.052l0 0c-2.637-2.658-4.266-6.319-4.266-10.361 0-2.577 0.662-4.999 1.826-7.105l-0.038 0.076 0.081-0.149-0.934-0.947c-0.055-0.055-0.089-0.131-0.089-0.215s0.034-0.16 0.089-0.215v-0l1.512-1.504c0.054-0.054 0.129-0.088 0.212-0.089h0c0.084 0.001 0.159 0.036 0.213 0.091l0.001 0.001 8.17 8.212 0.111-0.014 5.243-0.64-0.096-0.269c-0.071-0.193-0.112-0.415-0.112-0.647 0-1.066 0.864-1.931 1.93-1.931s1.93 0.864 1.93 1.931c0 1.066-0.864 1.93-1.93 1.93-0.008 0-0.016-0-0.024-0h-0.007c-0.244-0.002-0.476-0.049-0.689-0.134l0.013 0.005-0.253-0.099-0.054 0.267-0.961 4.735 0.086 0.087 8.443 8.505zM22.205 6.073c-0.235 0.235-0.381 0.559-0.381 0.917 0 0.713 0.576 1.292 1.289 1.295h0.004s0 0 0 0c0.715-0 1.295-0.58 1.295-1.295s-0.58-1.295-1.295-1.295c-0.356 0-0.679 0.144-0.913 0.376l0-0 0.001 0.001zM21.334 9.783l0.15-0.74-2.471 2.457 0.161 0.162 1.477 1.485 0.684-3.364zM20.666 8.998l0.472-0.47-4.531 0.553 0.33 0.332 1.647 1.655 0.162-0.161 1.92-1.909zM24.69 31.162h0.229v-0.762c0-1.010-0.819-1.829-1.829-1.829v0h-20.267c-1.010 0-1.829 0.819-1.829 1.829v0 0.762h23.695zM15.852 26.666v-0.229h-5.791v1.524h5.791v-1.296zM10.061 25.6v0.229h5.791v-4.282c0-1.446-1.327-2.575-2.896-2.575s-2.895 1.129-2.895 2.575v4.053zM16.461 23.904v0.183l0.178 0.040c0.929 0.219 1.996 0.345 3.093 0.345 2.325 0 4.517-0.565 6.449-1.564l-0.078 0.037 0.28-0.142-19.045-19.154-0.144 0.28c-0.982 1.872-1.558 4.090-1.558 6.442 0 3.764 1.475 7.184 3.88 9.713l-0.006-0.006 0.203 0.214 0.156-0.25c0.642-1.015 1.758-1.679 3.029-1.679 0.019 0 0.039 0 0.058 0l0-0c1.952 0 3.505 1.447 3.505 3.184v2.358zM27.817 23.381l0.161 0.162 1.081-1.074-0.161-0.162-13.107-13.184c-0.008-0.010-0.016-0.018-0.025-0.026l-0-0-0.005-0.005-8.083-8.128-0.162 0.161-0.917 0.913 0.916 0.918 20.302 20.425z"></path>
<path fill="#2196f3" stroke-linejoin="miter" stroke-linecap="butt" stroke-miterlimit="4" stroke-width="0.4571" stroke="#000" d="M12.961 20.267h-0.005l0.005 0.229M12.961 20.267l-0 0.229s0 0 0 0M12.961 20.267c0.883 0.001 1.598 0.717 1.598 1.6s-0.716 1.6-1.6 1.6c-0.001 0-0.002 0-0.002 0h0l0.005-3.2zM12.961 20.495h-0.005c-0.001 0-0.001 0-0.002 0-0.757 0-1.371 0.614-1.371 1.371s0.613 1.37 1.369 1.371h0s0 0 0 0h0.005c0.001 0 0.001 0 0.002 0 0.757 0 1.371-0.614 1.371-1.371s-0.613-1.37-1.369-1.371h-0zM13.496 22.407l0.393-0.391h-0.188c0.009-0.045 0.015-0.097 0.015-0.149 0-0.419-0.339-0.76-0.758-0.762h-0.002c-0.208 0.001-0.397 0.086-0.534 0.222l0-0c-0.139 0.138-0.224 0.329-0.224 0.54 0 0.419 0.339 0.76 0.758 0.762h0c0.203 0.001 0.397-0.079 0.54-0.222z"></path>
</svg>
